<?xml version="1.0" standalone="yes"?>
<svg xmlns="http://www.w3.org/2000/svg" width="232" height="230">
<path style="fill:#ffffff; stroke:none;" d="M0 0L0 230L232 230L232 0L0 0z"/>
<path style="fill:#1f2120; stroke:none;" d="M107 7L108 8L107 7z"/>
<path style="fill:#baf0e7; stroke:none;" d="M108.667 7.33333C108.222 7.77783 109.278 7.72221 109.333 7.66667C109.778 7.22227 108.722 7.27774 108.667 7.33333z"/>
<path style="fill:#64deca; stroke:none;" d="M110 7.43904C100.346 8.94681 90.3683 11.75 82 16.8989C75.1576 21.109 69.2423 25.92 64.0008 32.0008C29.6134 71.8938 55.5301 126.434 78.3966 165C86.9483 179.423 96.2644 193.448 106.151 207C108.455 210.158 113.564 219.793 118 219.793C122.259 219.793 126.885 210.987 129.127 208C138.407 195.632 146.925 182.96 155.343 170C159.364 163.811 162.806 157.418 166.424 151C185.496 117.169 203.09 69.409 175.536 35C172.069 30.6697 168.408 26.513 163.996 23.1312C157.553 18.1919 150.639 14.2106 143 11.4359C133.125 7.84917 120.444 5.80791 110 7.43904z"/>
<path style="fill:#84e5d5; stroke:none;" d="M123 7C124.506 7.68303 125.315 7.8259 127 8C125.494 7.31697 124.685 7.1741 123 7z"/>
<path style="fill:#d4f6f0; stroke:none;" d="M127.667 7.33333C127.222 7.77773 128.278 7.72224 128.333 7.66667C128.778 7.22212 127.722 7.27783 127.667 7.33333z"/>
<path style="fill:#1f2120; stroke:none;" d="M129 7L130 8L129 7z"/>
<path style="fill:#3f4242; stroke:none;" d="M102 8L103 9L102 8z"/>
<path style="fill:#a4ece0; stroke:none;" d="M103.667 8.33333C103.222 8.77783 104.278 8.72221 104.333 8.66667C104.778 8.22223 103.722 8.2778 103.667 8.33333M131 8C132.248 8.68475 132.549 8.74881 134 9C132.752 8.31519 132.452 8.25122 131 8z"/>
<path style="fill:#3f4242; stroke:none;" d="M134 8L135 9L134 8M98 9L99 10L98 9z"/>
<path style="fill:#a9ede1; stroke:none;" d="M99.6667 9.33333C99.2222 9.77782 100.278 9.72226 100.333 9.66667C100.778 9.22224 99.7222 9.27777 99.6667 9.33333z"/>
<path style="fill:#cbf4ed; stroke:none;" d="M136.667 9.33333C136.222 9.77776 137.278 9.72224 137.333 9.66667C137.778 9.22223 136.722 9.27774 136.667 9.33333z"/>
<path style="fill:#3f4242; stroke:none;" d="M138 9L139 10L138 9z"/>
<path style="fill:#93e8da; stroke:none;" d="M93.6667 11.3333C93.2221 11.7779 94.2778 11.7222 94.3333 11.6667C94.7778 11.2222 93.7222 11.2778 93.6667 11.3333z"/>
<path style="fill:#d2f5f0; stroke:none;" d="M145.667 12.3333C145.222 12.7778 146.278 12.7222 146.333 12.6667C146.778 12.2222 145.722 12.2778 145.667 12.3333z"/>
<path style="fill:#a8ede1; stroke:none;" d="M81 17L82 18L81 17M155 17L156 18L155 17z"/>
<path style="fill:#aaede2; stroke:none;" d="M75 21L76 22L75 21M161 21L162 22L161 21z"/>
<path style="fill:#b5efe6; stroke:none;" d="M71 24L72 25L71 24M165 24L166 25L165 24z"/>
<path style="fill:#adeee3; stroke:none;" d="M66 29L67 30L66 29M170 29L171 30L170 29z"/>
<path style="fill:#b7f0e6; stroke:none;" d="M60 36L61 37L60 36M176 36L177 37L176 36z"/>
<path style="fill:#3f4242; stroke:none;" d="M58 38L59 39L58 38M178 38L179 39L178 38z"/>
<path style="fill:#8ce6d8; stroke:none;" d="M52.3333 50.6667C52.2777 50.7223 52.2222 51.7778 52.6667 51.3333C52.7222 51.2778 52.7778 50.2222 52.3333 50.6667z"/>
<path style="fill:#cef3f2; stroke:none;" d="M112 50C113.506 50.683 114.315 50.8259 116 51C114.494 50.317 113.685 50.1741 112 50z"/>
<path style="fill:#ffffff; stroke:none;" d="M105 53L106 55C84.7684 63.2092 83.3976 94.3811 106 102C104.466 103.023 104.598 102.805 104 104C113.629 107.516 122.394 107.528 132 104C131.402 102.805 131.534 103.023 130 102C151.851 95.0226 151.863 61.9813 130 55C131.534 53.9774 131.402 54.1954 132 53C122.676 50.0432 114.284 49.6155 105 53z"/>
<path style="fill:#cef3f2; stroke:none;" d="M121.667 50.3333C121.222 50.7778 122.278 50.7223 122.333 50.6667C122.778 50.2222 121.722 50.2778 121.667 50.3333z"/>
<path style="fill:#99e8de; stroke:none;" d="M123.667 50.3333C123.222 50.7778 124.278 50.7223 124.333 50.6667C124.778 50.2222 123.722 50.2778 123.667 50.3333z"/>
<path style="fill:#8ce6d8; stroke:none;" d="M184.333 50.6667C184.278 50.7222 184.222 51.7778 184.667 51.3333C184.722 51.2778 184.778 50.2222 184.333 50.6667z"/>
<path style="fill:#313434; stroke:none;" d="M110 52L111 53L110 52z"/>
<path style="fill:#798a8a; stroke:none;" d="M111 52L112 53L111 52z"/>
<path style="fill:#c7dfdf; stroke:none;" d="M112.667 52.3333C112.222 52.7778 113.278 52.7222 113.333 52.6667C113.778 52.2223 112.722 52.2778 112.667 52.3333M121 52C122.248 52.6848 122.548 52.7488 124 53C122.752 52.3152 122.452 52.2512 121 52z"/>
<path style="fill:#798a8a; stroke:none;" d="M124 52L125 53L124 52z"/>
<path style="fill:#313434; stroke:none;" d="M125 52L126 53L125 52z"/>
<path style="fill:#5b6666; stroke:none;" d="M107 53L108 54L107 53z"/>
<path style="fill:#abc3c3; stroke:none;" d="M108 53L109 54L108 53M127 53L128 54L127 53z"/>
<path style="fill:#5b6666; stroke:none;" d="M128 53L129 54L128 53z"/>
<path style="fill:#cef3f2; stroke:none;" d="M103 54L104 55L103 54z"/>
<path style="fill:#161717; stroke:none;" d="M104 54L105 55L104 54z"/>
<path style="fill:#91a7a7; stroke:none;" d="M105 54L106 55L105 54M130 54L131 55L130 54z"/>
<path style="fill:#161717; stroke:none;" d="M131 54L132 55L131 54z"/>
<path style="fill:#cef3f2; stroke:none;" d="M132.667 54.3333C132.222 54.7778 133.278 54.7222 133.333 54.6667C133.778 54.2222 132.722 54.2778 132.667 54.3333z"/>
<path style="fill:#96e9db; stroke:none;" d="M50.3333 55.6667C50.2777 55.7223 50.2222 56.7777 50.6667 56.3333C50.7222 56.2778 50.7778 55.2222 50.3333 55.6667z"/>
<path style="fill:#ddefef; stroke:none;" d="M102.333 55.6667C102.278 55.7222 102.222 56.7778 102.667 56.3333C102.722 56.2777 102.778 55.2223 102.333 55.6667z"/>
<path style="fill:#99afaf; stroke:none;" d="M103 55L104 56L103 55M132 55L133 56L132 55z"/>
<path style="fill:#131313; stroke:none;" d="M133 55L134 56L133 55z"/>
<path style="fill:#bdefeb; stroke:none;" d="M134 55C134.691 56.3884 134.985 56.8607 136 58C136.048 55.6699 136.203 55.994 134 55z"/>
<path style="fill:#96e9db; stroke:none;" d="M186.333 55.6667C186.278 55.7222 186.222 56.7778 186.667 56.3333C186.722 56.2777 186.778 55.2223 186.333 55.6667z"/>
<path style="fill:#b5cece; stroke:none;" d="M100.333 56.6667C100.278 56.7222 100.222 57.7778 100.667 57.3333C100.722 57.2777 100.778 56.2223 100.333 56.6667z"/>
<path style="fill:#7f9090; stroke:none;" d="M101 56L102 57L101 56M134 56L135 57L134 56z"/>
<path style="fill:#5e6463; stroke:none;" d="M49 57L50 58L49 57z"/>
<path style="fill:#e6f4f4; stroke:none;" d="M99 57C98.0426 58.5168 97.6128 59.3385 97 61C98.63 59.4852 99.1631 59.1447 99 57z"/>
<path style="fill:#313434; stroke:none;" d="M136 57L137 58L136 57z"/>
<path style="fill:#cef3f2; stroke:none;" d="M137 57L138 58L137 57z"/>
<path style="fill:#5e6463; stroke:none;" d="M187 57L188 58L187 57z"/>
<path style="fill:#a6ece1; stroke:none;" d="M49.3333 58.6667C49.2778 58.7222 49.2222 59.7778 49.6667 59.3333C49.7222 59.2778 49.7778 58.2222 49.3333 58.6667z"/>
<path style="fill:#677373; stroke:none;" d="M137 58L138 59L137 58z"/>
<path style="fill:#d7f5f5; stroke:none;" d="M138 58C138.545 59.6352 138.365 59.4549 140 60C139.455 58.3649 139.635 58.545 138 58z"/>
<path style="fill:#a6ece1; stroke:none;" d="M187.333 58.6667C187.278 58.7222 187.222 59.7778 187.667 59.3333C187.722 59.2777 187.778 58.2222 187.333 58.6667z"/>
<path style="fill:#809393; stroke:none;" d="M138 59L139 60L138 59z"/>
<path style="fill:#b7d6d6; stroke:none;" d="M96 60L97 61L96 60z"/>
<path style="fill:#889d9d; stroke:none;" d="M139 60L140 61L139 60z"/>
<path style="fill:#bdefeb; stroke:none;" d="M140 60L141 61L140 60z"/>
<path style="fill:#809393; stroke:none;" d="M140 61L141 62L140 61z"/>
<path style="fill:#a7ece1; stroke:none;" d="M48.3333 62.6667C48.2777 62.7223 48.2222 63.7778 48.6667 63.3333C48.7222 63.2778 48.7778 62.2222 48.3333 62.6667z"/>
<path style="fill:#677373; stroke:none;" d="M141 62L142 63L141 62z"/>
<path style="fill:#a7ece1; stroke:none;" d="M188.333 62.6667C188.278 62.7222 188.222 63.7778 188.667 63.3333C188.722 63.2778 188.778 62.2222 188.333 62.6667z"/>
<path style="fill:#c4e1e1; stroke:none;" d="M141 63L144 68C144.401 65.2592 143.343 64.3466 141 63z"/>
<path style="fill:#c3e1e1; stroke:none;" d="M93 64L94 65L93 64z"/>
<path style="fill:#c8f3ec; stroke:none;" d="M47.3333 67.6667C47.2778 67.7222 47.2222 68.7778 47.6667 68.3333C47.7222 68.2778 47.7778 67.2222 47.3333 67.6667M189.333 67.6667C189.278 67.7222 189.222 68.7778 189.667 68.3333C189.722 68.2778 189.778 67.2222 189.333 67.6667z"/>
<path style="fill:#b5d5d4; stroke:none;" d="M145 68L145 71C145.696 69.4463 145.696 69.5537 145 68z"/>
<path style="fill:#7ee3d3; stroke:none;" d="M47 69L47 73C47.7102 71.2405 47.7102 70.7595 47 69z"/>
<path style="fill:#c8e4e4; stroke:none;" d="M90.3333 69.6667C90.2778 69.7222 90.2222 70.7778 90.6667 70.3333C90.7223 70.2777 90.7777 69.2223 90.3333 69.6667z"/>
<path style="fill:#7ee3d3; stroke:none;" d="M189 69L189 73C189.71 71.2405 189.71 70.7595 189 69z"/>
<path style="fill:#b5d8d7; stroke:none;" d="M89.3333 72.6667C89.2778 72.7222 89.2222 73.7778 89.6667 73.3333C89.7223 73.2777 89.7777 72.2223 89.3333 72.6667z"/>
<path style="fill:#bddbdb; stroke:none;" d="M146.333 72.6667C146.278 72.7222 146.222 73.7778 146.667 73.3333C146.722 73.2778 146.778 72.2222 146.333 72.6667z"/>
<path style="fill:#dbf7f3; stroke:none;" d="M46 77L46 81C46.7102 79.2405 46.7102 78.7595 46 77M190 77L190 81C190.71 79.2405 190.71 78.7595 190 77z"/>
<path style="fill:#cce7e6; stroke:none;" d="M89.3333 81.6667C89.2778 81.7222 89.2222 82.7778 89.6667 82.3333C89.7222 82.2778 89.7778 81.2222 89.3333 81.6667z"/>
<path style="fill:#cee7e8; stroke:none;" d="M146.333 81.6667C146.278 81.7222 146.222 82.7778 146.667 82.3333C146.722 82.2778 146.778 81.2222 146.333 81.6667z"/>
<path style="fill:#9bcec9; stroke:none;" d="M89.3333 83.6667C89.2778 83.7222 89.2222 84.7778 89.6667 84.3333C89.7222 84.2778 89.7777 83.2223 89.3333 83.6667z"/>
<path style="fill:#afd4d2; stroke:none;" d="M146.333 83.6667C146.278 83.7222 146.222 84.7778 146.667 84.3333C146.722 84.2777 146.778 83.2223 146.333 83.6667z"/>
<path style="fill:#94e8db; stroke:none;" d="M47 84L47 87C47.6961 85.4463 47.6961 85.5537 47 84M189 84L189 87C189.696 85.4463 189.696 85.5537 189 84z"/>
<path style="fill:#a1cfcb; stroke:none;" d="M90.3333 86.6667C90.2778 86.7222 90.2222 87.7778 90.6667 87.3333C90.7222 87.2778 90.7778 86.2223 90.3333 86.6667z"/>
<path style="fill:#bad7d6; stroke:none;" d="M145 86L145 89C145.696 87.4463 145.696 87.5537 145 86z"/>
<path style="fill:#c9f4ed; stroke:none;" d="M47 87L47 90C47.6961 88.4463 47.6961 88.5537 47 87M189 87L189 90C189.696 88.4463 189.696 88.5537 189 87z"/>
<path style="fill:#add3d2; stroke:none;" d="M91 89L92 90L91 89z"/>
<path style="fill:#8da1a1; stroke:none;" d="M144 89L145 90L144 89z"/>
<path style="fill:#5e6463; stroke:none;" d="M47 90L48 91L47 90z"/>
<path style="fill:#bdefeb; stroke:none;" d="M143.667 90.3333C143.222 90.7778 144.278 90.7222 144.333 90.6667C144.778 90.2222 143.722 90.2777 143.667 90.3333z"/>
<path style="fill:#5e6463; stroke:none;" d="M189 90L190 91L189 90z"/>
<path style="fill:#798a8a; stroke:none;" d="M143 91L144 92L143 91z"/>
<path style="fill:#cbd9dc; stroke:none;" d="M142 95C143.015 93.8607 143.309 93.3884 144 92C141.797 92.994 141.952 92.6699 142 95z"/>
<path style="fill:#677373; stroke:none;" d="M141 94L142 95L141 94z"/>
<path style="fill:#809393; stroke:none;" d="M140 95L141 96L140 95z"/>
<path style="fill:#c5f1ee; stroke:none;" d="M141 95L142 96L141 95z"/>
<path style="fill:#889d9d; stroke:none;" d="M139 96L140 97L139 96z"/>
<path style="fill:#e0f6f8; stroke:none;" d="M140 96L141 97L140 96z"/>
<path style="fill:#d6eaea; stroke:none;" d="M97 97C98.3303 98.7525 99.2475 99.6697 101 101C99.8465 98.7511 99.2489 98.1535 97 97z"/>
<path style="fill:#809393; stroke:none;" d="M138 97L139 98L138 97z"/>
<path style="fill:#d9e7eb; stroke:none;" d="M139 97L140 98L139 97z"/>
<path style="fill:#cbf4ed; stroke:none;" d="M49.3333 98.6667C49.2777 98.7223 49.2222 99.7777 49.6667 99.3333C49.7222 99.2778 49.7778 98.2222 49.3333 98.6667z"/>
<path style="fill:#677373; stroke:none;" d="M137 98L138 99L137 98z"/>
<path style="fill:#d9e7eb; stroke:none;" d="M138 98L139 99L138 98z"/>
<path style="fill:#c7f3ec; stroke:none;" d="M187.333 98.6667C187.278 98.7222 187.222 99.7778 187.667 99.3333C187.722 99.2778 187.778 98.2222 187.333 98.6667z"/>
<path style="fill:#b5cece; stroke:none;" d="M135 99L136 100L135 99z"/>
<path style="fill:#313434; stroke:none;" d="M136 99L137 100L136 99z"/>
<path style="fill:#d9e7eb; stroke:none;" d="M137 99L138 100L137 99z"/>
<path style="fill:#7d8584; stroke:none;" d="M49 100L50 101L49 100z"/>
<path style="fill:#7f9090; stroke:none;" d="M101 100L102 101L101 100M134 100L135 101L134 100z"/>
<path style="fill:#c5f1ee; stroke:none;" d="M132 104C134.217 102.837 135.394 101.914 137 100C134.515 101.013 133.402 101.726 132 104M101 101L102 102L101 101z"/>
<path style="fill:#131313; stroke:none;" d="M102 101L103 102L102 101z"/>
<path style="fill:#99afaf; stroke:none;" d="M103 101L104 102L103 101M132 101L133 102L132 101z"/>
<path style="fill:#131313; stroke:none;" d="M133 101L134 102L133 101z"/>
<path style="fill:#c5f3eb; stroke:none;" d="M50.3333 102.667C50.2778 102.722 50.2222 103.778 50.6667 103.333C50.7223 103.278 50.7778 102.222 50.3333 102.667z"/>
<path style="fill:#d9e7eb; stroke:none;" d="M102.667 102.333C102.222 102.778 103.278 102.722 103.333 102.667C103.778 102.222 102.722 102.278 102.667 102.333z"/>
<path style="fill:#161717; stroke:none;" d="M104 102L105 103L104 102z"/>
<path style="fill:#91a7a7; stroke:none;" d="M105 102L106 103L105 102M130 102L131 103L130 102z"/>
<path style="fill:#161717; stroke:none;" d="M131 102L132 103L131 102z"/>
<path style="fill:#bef1e9; stroke:none;" d="M186.333 102.667C186.278 102.722 186.222 103.778 186.667 103.333C186.722 103.278 186.778 102.222 186.333 102.667z"/>
<path style="fill:#5b6666; stroke:none;" d="M107 103L108 104L107 103z"/>
<path style="fill:#abc3c3; stroke:none;" d="M108 103L109 104L108 103M127 103L128 104L127 103z"/>
<path style="fill:#5b6666; stroke:none;" d="M128 103L129 104L128 103z"/>
<path style="fill:#313434; stroke:none;" d="M110 104L111 105L110 104z"/>
<path style="fill:#798a8a; stroke:none;" d="M111 104L112 105L111 104z"/>
<path style="fill:#c7dfdf; stroke:none;" d="M112.667 104.333C112.222 104.778 113.278 104.722 113.333 104.667C113.778 104.222 112.722 104.278 112.667 104.333M121 104C122.248 104.685 122.548 104.749 124 105C122.752 104.315 122.452 104.251 121 104z"/>
<path style="fill:#798a8a; stroke:none;" d="M124 104L125 105L124 104z"/>
<path style="fill:#313434; stroke:none;" d="M125 104L126 105L125 104z"/>
<path style="fill:#d9f7f2; stroke:none;" d="M51.3333 106.667C51.2778 106.722 51.2222 107.778 51.6667 107.333C51.7222 107.278 51.7778 106.222 51.3333 106.667z"/>
<path style="fill:#c6f1ef; stroke:none;" d="M111 106C112.248 106.685 112.548 106.749 114 107C112.752 106.315 112.452 106.251 111 106M123.667 106.333C123.222 106.778 124.278 106.722 124.333 106.667C124.778 106.222 123.722 106.278 123.667 106.333z"/>
<path style="fill:#d1f5ef; stroke:none;" d="M185.333 106.667C185.278 106.722 185.222 107.778 185.667 107.333C185.722 107.278 185.778 106.222 185.333 106.667z"/>
<path style="fill:#88e5d7; stroke:none;" d="M115 107C117.332 107.985 119.457 107.981 122 108C119.668 107.015 117.543 107.019 115 107z"/>
<path style="fill:#d4f6f0; stroke:none;" d="M52.3333 109.667C52.2778 109.722 52.2222 110.778 52.6667 110.333C52.7223 110.278 52.7777 109.222 52.3333 109.667z"/>
<path style="fill:#cef5ee; stroke:none;" d="M184.333 109.667C184.278 109.722 184.222 110.778 184.667 110.333C184.722 110.278 184.778 109.222 184.333 109.667M53.3333 112.667C53.2778 112.722 53.2222 113.778 53.6667 113.333C53.7223 113.278 53.7778 112.222 53.3333 112.667z"/>
<path style="fill:#cbf4ed; stroke:none;" d="M183.333 112.667C183.278 112.722 183.222 113.778 183.667 113.333C183.722 113.278 183.778 112.222 183.333 112.667z"/>
<path style="fill:#c8f3ec; stroke:none;" d="M54.3333 115.667C54.2778 115.722 54.2222 116.778 54.6667 116.333C54.7223 116.278 54.7778 115.222 54.3333 115.667M182.333 115.667C182.278 115.722 182.222 116.778 182.667 116.333C182.722 116.278 182.778 115.222 182.333 115.667z"/>
<path style="fill:#bbc9c6; stroke:none;" d="M59.3333 128.667C59.2778 128.722 59.2222 129.778 59.6667 129.333C59.7222 129.278 59.7778 128.222 59.3333 128.667z"/>
<path style="fill:#b4efe5; stroke:none;" d="M63 137L64 138L63 137z"/>
<path style="fill:#5e6463; stroke:none;" d="M63 138L64 139L63 138z"/>
<path style="fill:#b6efe6; stroke:none;" d="M172 139L173 140L172 139z"/>
<path style="fill:#b7f0e6; stroke:none;" d="M171 141L172 142L171 141z"/>
<path style="fill:#abede2; stroke:none;" d="M66 143L67 144L66 143z"/>
<path style="fill:#9ca7a5; stroke:none;" d="M66 144L67 145L66 144z"/>
<path style="fill:#b0eee4; stroke:none;" d="M67 145L68 146L67 145z"/>
<path style="fill:#b6efe6; stroke:none;" d="M68 147L69 148L68 147z"/>
<path style="fill:#bbf0e8; stroke:none;" d="M69 149L70 150L69 149z"/>
<path style="fill:#aaede2; stroke:none;" d="M166 150L167 151L166 150z"/>
<path style="fill:#7d8584; stroke:none;" d="M166 151L167 152L166 151z"/>
<path style="fill:#b5efe6; stroke:none;" d="M165 152L166 153L165 152z"/>
<path style="fill:#b1eee4; stroke:none;" d="M73 156L74 157L73 156z"/>
<path style="fill:#9ca7a5; stroke:none;" d="M161 160L162 161L161 160z"/>
<path style="fill:#d9e9e6; stroke:none;" d="M76.3333 161.667C76.2778 161.722 76.2222 162.778 76.6667 162.333C76.7222 162.278 76.7778 161.222 76.3333 161.667z"/>
<path style="fill:#b5efe6; stroke:none;" d="M160 161L161 162L160 161z"/>
<path style="fill:#b8f0e7; stroke:none;" d="M77 163L78 164L77 163z"/>
<path style="fill:#bbc8c6; stroke:none;" d="M79.3333 166.667C79.2777 166.722 79.2222 167.778 79.6667 167.333C79.7222 167.278 79.7778 166.222 79.3333 166.667z"/>
<path style="fill:#baf0e8; stroke:none;" d="M80 168L81 169L80 168z"/>
<path style="fill:#b4efe5; stroke:none;" d="M155 169L156 170L155 169z"/>
<path style="fill:#7d8584; stroke:none;" d="M82 172L83 173L82 172z"/>
<path style="fill:#abede2; stroke:none;" d="M153 172L154 173L153 172z"/>
<path style="fill:#baf0e7; stroke:none;" d="M85 176L86 177L85 176z"/>
<path style="fill:#b8f0e7; stroke:none;" d="M87 179L88 180L87 179z"/>
<path style="fill:#b7f0e6; stroke:none;" d="M89 182L90 183L89 182z"/>
<path style="fill:#b5efe6; stroke:none;" d="M91 185L92 186L91 185z"/>
<path style="fill:#b4efe5; stroke:none;" d="M93 188L94 189L93 188z"/>
<path style="fill:#3f4242; stroke:none;" d="M143 188L144 189L143 188z"/>
<path style="fill:#b2efe5; stroke:none;" d="M95 191L96 192L95 191z"/>
<path style="fill:#7d8584; stroke:none;" d="M141 191L142 192L141 191z"/>
<path style="fill:#b8f0e7; stroke:none;" d="M97 194L98 195L97 194z"/>
<path style="fill:#bbf0e8; stroke:none;" d="M137 196L138 197L137 196z"/>
<path style="fill:#b5efe6; stroke:none;" d="M134 200L135 201L134 200z"/>
<path style="fill:#b1eee4; stroke:none;" d="M102 201L103 202L102 201z"/>
<path style="fill:#9ca7a5; stroke:none;" d="M133 202L134 203L133 202z"/>
<path style="fill:#b0eee4; stroke:none;" d="M131 204L132 205L131 204z"/>
<path style="fill:#5e6463; stroke:none;" d="M105 206L106 207L105 206z"/>
<path style="fill:#abede2; stroke:none;" d="M107 208L108 209L107 208M128 208L129 209L128 208z"/>
<path style="fill:#b6efe6; stroke:none;" d="M110 212L111 213L110 212M125 212L126 213L125 212z"/>
<path style="fill:#abede2; stroke:none;" d="M114 217L115 218L114 217M121 217L122 218L121 217z"/>
<path style="fill:#bff1e9; stroke:none;" d="M117.667 221.333C117.222 221.778 118.278 221.722 118.333 221.667C118.778 221.222 117.722 221.278 117.667 221.333z"/>
</svg>
